<?xml version="1.0" standalone="no"?>
<!DOCTYPE svg PUBLIC "-//W3C//DTD SVG 20010904//EN"
 "http://www.w3.org/TR/2001/REC-SVG-20010904/DTD/svg10.dtd">
<svg version="1.0" xmlns="http://www.w3.org/2000/svg"
 width="420.000000pt" height="463.000000pt" viewBox="0 0 420.000000 463.000000"
 preserveAspectRatio="xMidYMid meet">

<g transform="translate(0.000000,463.000000) scale(0.100000,-0.100000)"
fill="#000000" stroke="none">
<path d="M2905 4591 c-163 -89 -192 -107 -230 -146 -50 -52 -79 -129 -72 -188
14 -105 36 -192 53 -204 26 -19 48 -17 39 5 -18 44 -18 51 4 45 12 -3 21 -11
21 -19 0 -7 9 -18 20 -24 l21 -11 -21 -26 c-33 -42 -11 -42 25 0 46 53 48 70
13 118 -26 35 -29 48 -28 102 1 34 0 88 -3 120 -6 70 3 72 64 19 60 -53 147
-111 175 -118 17 -4 24 -13 24 -31 0 -22 -3 -24 -27 -18 -16 3 -43 20 -60 38
-31 29 -58 33 -36 5 26 -33 22 -57 -13 -77 -19 -11 -34 -26 -34 -32 0 -8 7 -5
19 5 20 18 111 50 119 41 2 -2 -8 -9 -24 -16 -87 -34 -121 -61 -97 -78 5 -3
13 -15 17 -26 7 -19 10 -17 40 16 18 19 38 44 44 55 10 18 11 18 35 -4 20 -19
26 -21 36 -8 13 16 64 29 54 13 -4 -6 4 -7 22 -3 19 5 31 3 37 -6 14 -22 26
10 18 47 -8 33 2 55 25 55 12 0 13 -115 1 -127 -10 -11 -7 -23 7 -23 17 0 41
43 35 62 -3 7 2 19 11 25 14 11 14 14 1 22 -8 6 -12 13 -8 16 4 4 14 -4 22
-18 13 -19 14 -31 6 -53 -9 -27 -9 -28 5 -10 8 11 15 30 15 42 0 13 4 25 9 28
9 6 5 -80 -4 -95 -8 -13 41 -59 62 -59 11 0 25 -6 30 -12 11 -14 56 -152 68
-207 7 -33 8 -34 21 -16 13 17 14 13 14 -35 0 -57 -18 -87 -124 -205 -43 -49
-45 -49 -60 -30 -22 29 -49 102 -43 117 2 8 29 21 59 31 31 10 72 32 94 53 39
36 39 36 4 12 -44 -29 -107 -58 -128 -58 -8 0 -24 -7 -33 -16 -17 -15 -20 -15
-44 0 -23 15 -30 39 -26 88 2 19 -35 48 -62 48 -16 0 -15 5 11 38 60 77 51 81
-18 9 -88 -93 -160 -133 -160 -88 0 28 -31 59 -62 63 -39 4 -35 -16 4 -22 30
-5 33 -9 38 -45 5 -38 7 -40 39 -38 22 1 44 11 65 31 33 32 71 48 79 35 8 -13
-47 -96 -84 -127 -40 -33 -220 -149 -264 -170 -43 -21 -57 -39 -104 -133 -22
-45 -53 -91 -67 -102 -15 -12 -24 -24 -20 -28 12 -12 57 20 74 52 9 17 26 46
37 65 11 19 20 37 20 40 0 13 37 81 42 76 3 -2 0 -20 -6 -38 -14 -42 -34 -214
-35 -295 -1 -71 -4 -73 -76 -48 -24 8 -45 13 -47 11 -3 -2 -21 2 -40 11 -52
21 -64 1 -14 -24 22 -11 38 -16 35 -12 -6 11 10 12 20 2 3 -4 17 -8 29 -10 34
-5 87 -24 88 -31 0 -4 2 -35 4 -68 3 -59 2 -61 -21 -61 -14 0 -21 4 -17 11 3
6 0 6 -8 -1 -18 -18 -25 -16 -50 10 l-21 22 11 -22 c6 -13 16 -23 21 -23 6 0
10 -4 10 -8 0 -5 -19 -9 -42 -10 -24 -1 -56 -6 -73 -12 -16 -5 -44 -8 -61 -6
-25 3 -30 1 -29 -14 2 -27 23 -48 56 -55 16 -4 29 -11 29 -17 0 -6 -9 -8 -20
-5 -10 3 -20 1 -22 -4 -2 -5 -41 -14 -88 -19 -90 -11 -140 -26 -140 -42 0 -5
12 -7 28 -4 15 3 69 13 120 21 51 9 103 19 115 24 12 4 36 11 52 15 28 6 28 5
-10 -18 -22 -14 -47 -28 -55 -32 -8 -4 -22 -12 -30 -19 -8 -7 -53 -32 -100
-56 -47 -23 -111 -60 -143 -81 -32 -21 -63 -38 -68 -38 -5 0 -9 -4 -9 -8 0 -5
-12 -15 -27 -23 -29 -15 -79 -49 -148 -100 -22 -16 -56 -40 -75 -53 -19 -13
-41 -31 -49 -40 -7 -9 -18 -16 -24 -16 -6 0 -18 -7 -28 -16 -16 -14 -18 -13
-29 20 -15 47 -71 129 -127 187 l-45 46 49 32 c26 17 80 54 118 82 39 27 79
54 91 58 11 5 52 28 90 52 38 23 84 48 103 56 38 16 89 54 168 125 29 25 70
57 92 70 73 44 171 111 171 118 0 4 13 27 30 51 16 24 30 52 30 61 0 9 8 18
18 21 14 3 13 6 -8 14 -21 9 -26 8 -34 -11 -4 -11 -12 -28 -17 -36 -5 -8 -15
-29 -23 -46 -8 -19 -49 -55 -111 -99 -53 -38 -123 -92 -156 -119 -86 -75 -106
-89 -192 -135 -97 -52 -164 -95 -288 -182 -53 -37 -107 -71 -121 -74 -14 -4
-47 -24 -73 -46 -27 -22 -65 -49 -84 -59 -20 -10 -61 -31 -93 -48 -67 -36 -76
-38 -151 -28 -53 7 -61 5 -82 -14 -26 -24 -45 -20 -45 11 0 22 -1 23 -51 7
-47 -14 -54 -9 -38 26 19 41 -1 53 -39 22 -36 -31 -38 -31 -45 -6 -3 12 -14
20 -27 20 -35 0 -320 -226 -320 -255 0 -7 -28 -33 -63 -58 -34 -24 -98 -70
-142 -101 -44 -32 -91 -62 -105 -67 -14 -5 -35 -14 -47 -21 -12 -6 -31 -8 -42
-5 -15 4 -27 -3 -42 -25 -31 -43 -12 -56 36 -24 21 14 49 26 62 26 13 0 52 23
90 53 37 28 88 68 114 87 114 83 179 136 179 143 0 10 97 100 114 106 6 2 -2
-10 -17 -28 -15 -18 -27 -39 -27 -46 0 -8 -18 -26 -40 -42 -144 -102 -350
-256 -360 -268 -26 -32 7 -11 158 99 202 145 208 150 217 136 4 -6 5 -13 3
-15 -25 -26 -504 -362 -510 -359 -4 3 -3 14 3 25 10 19 9 20 -13 8 -13 -7 -28
-19 -35 -28 -9 -11 -12 -12 -13 -3 0 7 11 25 25 39 13 15 22 29 19 32 -7 7
-84 -71 -84 -87 0 -7 12 -34 26 -58 25 -42 29 -45 58 -38 32 7 131 69 176 109
43 40 344 248 373 259 26 10 31 8 49 -17 22 -30 58 -36 78 -11 23 27 48 36 71
23 17 -9 20 -8 17 3 -3 7 -18 15 -34 16 -31 4 -57 20 -52 33 2 4 32 28 67 54
48 36 68 45 80 38 27 -17 24 -33 -9 -39 -17 -4 -38 -17 -46 -29 -13 -21 -13
-27 0 -59 8 -20 11 -34 6 -31 -14 9 -12 -9 2 -23 15 -15 63 -15 88 0 16 11 24
8 57 -20 21 -18 64 -52 96 -77 51 -38 62 -43 95 -38 38 6 122 51 122 66 0 5 9
20 20 34 11 14 20 33 20 42 0 9 16 29 36 45 l36 28 23 -22 23 -22 28 31 c15
17 61 48 103 67 41 20 102 60 135 88 71 60 263 195 356 251 36 22 88 57 115
78 28 21 88 57 135 80 47 24 99 51 115 61 75 47 113 73 154 103 24 18 47 33
50 33 4 0 1 -66 -6 -147 -6 -82 -12 -196 -12 -255 -1 -59 -5 -118 -11 -132 -5
-14 -12 -74 -16 -133 -3 -61 -19 -165 -36 -238 -22 -100 -28 -142 -23 -184 4
-30 0 -138 -9 -240 -8 -102 -23 -276 -32 -386 -9 -110 -20 -276 -23 -370 -8
-194 -5 -202 68 -212 27 -4 45 -12 52 -26 9 -15 25 -298 29 -484 0 -13 6 -23
14 -23 11 0 14 12 11 48 -1 26 -4 115 -5 197 -2 135 -10 216 -26 268 -4 12 0
17 15 17 13 0 21 -6 21 -16 0 -9 7 -22 15 -28 10 -8 16 -43 20 -131 4 -65 8
-122 10 -125 6 -10 9 -179 3 -185 -10 -10 4 -45 18 -45 10 0 12 26 9 126 -2
69 -6 128 -9 131 -3 3 -1 14 4 24 6 10 6 20 1 23 -5 3 -9 45 -10 93 l-2 88
108 -3 c59 -2 109 -5 111 -7 7 -7 -36 -74 -43 -67 -5 4 -5 1 -1 -6 5 -9 -2
-25 -20 -44 -16 -17 -23 -28 -16 -24 6 4 12 5 12 3 0 -9 -53 -103 -67 -119 -8
-9 -12 -21 -8 -27 4 -7 -1 -9 -12 -5 -15 5 -16 4 -3 -5 13 -10 13 -12 0 -21
-8 -5 -10 -10 -4 -10 14 0 69 58 62 66 -4 3 9 33 28 67 19 34 43 80 53 102 37
75 49 84 121 86 43 1 64 -2 63 -9 -2 -6 -5 -44 -7 -84 -2 -40 -9 -94 -15 -119
-6 -25 -13 -70 -16 -100 -2 -30 -8 -78 -11 -107 -5 -42 -3 -52 8 -52 11 0 17
16 21 53 3 28 15 113 26 187 11 75 20 147 19 160 -4 67 1 80 30 80 36 0 54
-37 77 -153 9 -44 20 -89 25 -102 5 -13 14 -68 21 -124 11 -84 16 -101 30
-101 21 0 20 13 -18 190 -13 63 -26 133 -29 155 -2 22 -11 57 -19 78 -8 20
-13 37 -10 37 10 0 75 -63 75 -74 1 -15 60 -79 67 -72 4 3 -1 14 -10 24 -10
10 -17 22 -17 26 0 14 -65 88 -90 102 -23 12 -19 13 48 14 68 0 72 -1 73 -22
0 -13 11 -68 23 -123 16 -68 20 -104 14 -112 -7 -9 -6 -18 3 -29 7 -9 14 -23
15 -32 16 -110 29 -162 41 -162 13 0 18 14 13 35 -10 38 -31 136 -36 165 -3
19 -12 69 -21 110 -23 121 -27 162 -13 170 7 4 50 8 96 9 47 1 90 3 97 6 6 2
25 6 41 10 27 6 28 4 23 -22 -10 -55 -17 -77 -25 -82 -5 -3 -9 -13 -10 -21 -1
-30 -11 -59 -40 -118 -17 -33 -28 -63 -25 -66 3 -3 1 -11 -4 -18 -6 -7 -14
-24 -18 -38 -4 -13 -14 -30 -21 -38 -8 -7 -12 -18 -8 -23 3 -6 0 -17 -7 -25
-6 -8 -9 -17 -6 -21 4 -3 2 -12 -4 -20 -7 -8 -8 -13 -1 -13 12 0 52 83 52 108
0 10 9 28 20 40 12 12 16 22 9 22 -8 0 -6 7 4 18 10 10 17 26 17 34 0 22 29
90 48 111 15 17 14 17 -4 11 -18 -7 -18 -7 -1 13 10 12 19 27 21 35 1 7 4 18
7 23 3 6 11 29 19 53 9 28 19 42 31 42 25 0 29 -42 29 -275 0 -110 0 -208 1
-217 0 -11 8 -18 21 -18 19 0 20 4 14 63 -3 34 -7 149 -8 256 l-3 193 53 20
c43 16 52 24 52 43 0 26 -17 248 -25 332 l-5 53 49 0 c55 0 74 15 70 57 -1 15
-1 70 -1 121 l2 94 28 -3 c40 -5 49 5 51 58 0 26 3 55 6 63 2 8 12 76 21 150
13 104 17 230 19 550 1 228 5 465 9 525 8 112 -8 290 -39 430 -7 33 -18 105
-25 160 -25 214 -64 314 -138 360 -18 11 -68 43 -111 70 -43 28 -97 61 -120
75 -115 69 -137 87 -154 123 -12 24 -35 47 -65 64 -59 34 -67 45 -82 110 -11
44 -11 55 1 69 8 9 13 26 11 36 -3 19 33 57 56 58 6 0 12 9 12 19 0 11 5 23
11 26 7 5 5 13 -6 25 -21 23 -5 33 30 20 14 -5 40 -10 56 -10 29 0 29 0 13 25
-15 24 -15 24 19 38 45 19 56 37 23 37 -16 0 -32 9 -42 25 -16 24 -15 26 9 45
20 16 46 87 28 77 -59 -31 -61 -31 -89 -10 -15 11 -34 32 -42 46 -13 24 -13
28 2 39 16 13 34 58 23 58 -3 0 -15 -5 -27 -11 -27 -15 -78 -4 -122 26 -36 24
-41 25 -229 25 l-192 -1 -70 -38z m412 -13 c7 18 27 15 48 -8 10 -11 14 -20 9
-20 -4 0 14 -23 41 -52 52 -54 49 -54 -22 1 -24 18 -43 27 -43 21 0 -7 -8 -9
-20 -5 -23 7 -26 -5 -7 -24 22 -23 -63 17 -98 46 -39 33 -44 46 -12 34 45 -17
77 -21 77 -11 0 5 -6 10 -14 10 -7 0 -19 7 -27 16 -10 13 -6 12 26 -3 29 -14
39 -15 42 -5z m-121 -51 c27 -16 119 -97 109 -97 -4 0 -21 10 -38 22 -17 12
-40 23 -51 24 -50 4 -94 34 -50 34 14 0 14 3 4 15 -15 18 -3 19 26 2z m-82
-48 c57 -38 73 -61 22 -31 -41 24 -50 27 -41 12 9 -15 -9 -12 -31 6 -18 14
-18 15 6 8 25 -7 25 -7 6 15 -26 29 -15 26 38 -10z m-117 -46 c12 -5 14 -3 8
7 -5 8 4 6 23 -6 17 -10 29 -20 27 -22 -3 -3 -11 1 -20 8 -9 7 -18 10 -21 7
-3 -3 8 -13 25 -23 39 -23 39 -30 1 -37 -33 -7 -60 0 -60 15 0 5 6 6 13 2 6
-4 3 4 -9 17 -33 38 -40 54 -21 46 10 -4 24 -10 34 -14z m135 -21 c20 -20 -13
-14 -49 8 -18 11 -33 21 -33 24 0 7 70 -20 82 -32z m-152 -84 c0 -13 -33 -9
-52 6 -27 20 -22 24 17 12 19 -6 35 -14 35 -18z m-343 -65 c-3 -10 -5 -4 -5
12 0 17 2 24 5 18 2 -7 2 -21 0 -30z m40 -20 c-3 -10 -5 -4 -5 12 0 17 2 24 5
18 2 -7 2 -21 0 -30z m253 -29 c0 -8 -4 -12 -10 -9 -5 3 -10 13 -10 21 0 8 5
12 10 9 6 -3 10 -13 10 -21z m178 -10 c26 -40 24 -52 -6 -33 -16 10 -26 10
-51 -1 -17 -7 -31 -17 -31 -23 0 -5 -9 -2 -20 8 -19 17 -19 18 13 50 42 44 66
43 95 -1z m-173 -64 c-10 -11 -22 -17 -26 -14 -5 3 -9 0 -9 -5 0 -6 -4 -11
-10 -11 -18 0 -10 15 18 32 37 23 49 22 27 -2z m613 -366 c12 -8 22 -22 22
-30 0 -8 9 -33 20 -56 13 -28 17 -46 10 -58 -6 -11 -5 -21 2 -28 6 -6 12 -30
14 -54 1 -24 5 -58 8 -77 4 -25 0 -38 -12 -47 -15 -12 -13 -13 16 -14 35 0 37
5 23 60 -12 44 -25 157 -18 150 3 -3 14 -48 25 -100 11 -52 23 -103 27 -112 6
-15 1 -18 -33 -18 -45 0 -74 8 -67 20 2 4 -19 20 -48 35 -29 16 -64 37 -79 47
-32 22 -68 20 -115 -5 -18 -10 -33 -15 -33 -12 0 27 187 231 208 227 11 -3 13
2 8 20 -23 72 -19 81 22 52z m-433 -66 c-3 -24 -8 -54 -10 -68 -3 -14 -8 -62
-11 -108 -4 -45 -11 -85 -16 -88 -5 -4 -20 4 -33 16 -20 19 -31 22 -65 16
l-41 -6 23 41 c13 23 35 63 50 90 14 27 42 67 62 89 20 22 36 45 36 50 0 6 3
10 6 10 3 0 3 -19 -1 -42z m40 21 c-5 -14 0 -28 16 -45 12 -13 17 -24 11 -24
-7 0 -18 -16 -26 -35 -8 -19 -18 -35 -22 -35 -8 0 2 135 11 150 11 17 17 11
10 -11z m485 -39 c0 -5 6 -10 13 -10 8 0 39 -18 71 -40 31 -22 69 -47 84 -55
15 -8 40 -26 56 -39 l30 -25 -35 -39 c-52 -60 -69 -82 -69 -90 0 -4 -8 -19
-17 -32 -10 -14 -18 -32 -18 -40 0 -9 -8 -14 -20 -12 -15 2 -16 0 -7 -6 12 -8
12 -13 0 -31 -11 -19 -19 -21 -51 -17 -122 20 -281 103 -251 133 15 15 60 17
69 4 3 -5 29 -12 58 -15 77 -8 194 -14 179 -9 -6 3 -10 8 -7 13 2 4 -2 21 -10
37 -8 17 -24 72 -35 124 -10 51 -28 105 -40 121 -22 31 -25 38 -10 38 6 0 10
-4 10 -10z m-403 -82 c14 -11 13 -50 -2 -44 -5 2 -19 -5 -31 -16 -18 -16 -23
-17 -33 -4 -7 9 -9 21 -5 28 5 7 9 18 10 23 0 6 2 16 2 23 2 14 36 8 59 -10z
m-288 -25 c-32 -35 -58 -68 -84 -112 -18 -30 -78 -97 -73 -81 3 8 11 41 19 74
7 34 19 60 28 64 24 9 96 59 111 77 7 8 17 15 23 15 6 0 -5 -17 -24 -37z m-9
-65 c-29 -40 -53 -79 -53 -86 0 -14 -44 -48 -52 -40 -2 2 30 50 72 106 41 57
78 100 81 98 3 -3 -19 -38 -48 -78z m220 -9 c12 -29 11 -32 -16 -54 l-29 -23
-3 50 c-4 64 3 85 22 69 8 -7 20 -25 26 -42z m137 6 c4 -12 -43 -72 -51 -64
-11 11 17 80 32 77 9 -2 17 -7 19 -13z m631 -33 c2 -7 -2 -11 -9 -10 -12 3
-92 -126 -163 -262 -35 -68 -76 -234 -76 -310 0 -28 -4 -39 -11 -34 -14 8 -7
100 16 219 9 44 17 88 18 98 2 15 -16 24 -83 48 -47 16 -74 27 -60 24 87 -18
126 -28 136 -36 15 -12 34 11 83 106 44 85 116 178 134 172 6 -2 13 -9 15 -15z
m-1158 -96 c-12 -54 -21 -114 -20 -134 0 -21 -4 -73 -9 -117 l-8 -80 -1 65
c-2 81 23 305 38 344 20 54 20 20 0 -78z m644 95 c4 -5 -19 -17 -49 -26 -30
-10 -55 -21 -55 -26 0 -4 15 -16 33 -28 36 -23 95 -83 120 -123 26 -42 9 -34
-36 18 -23 26 -67 68 -99 95 -33 27 -57 50 -54 50 15 4 24 7 66 27 51 23 66
26 74 13z m-197 -12 c-14 -8 -16 -14 -6 -25 12 -14 12 -14 -36 -29 -10 -3 -15
3 -15 16 0 15 5 19 15 15 9 -3 15 0 15 8 0 14 14 24 35 25 6 0 2 -4 -8 -10z
m281 -32 c30 -16 52 -31 49 -34 -8 -8 -90 32 -107 52 -17 21 -14 20 58 -18z
m-461 -9 c28 -27 36 -30 43 -18 5 8 12 11 16 7 4 -4 -1 -14 -12 -21 -17 -13
-22 -11 -54 21 -24 24 -41 33 -57 30 -12 -2 -20 0 -17 4 11 19 50 8 81 -23z
m960 20 c21 -27 53 -130 54 -177 1 -28 6 -56 10 -62 4 -7 3 -22 -3 -32 -5 -11
-6 -17 -1 -14 11 7 46 -193 47 -268 1 -27 6 -54 11 -58 6 -6 6 -10 -2 -14 -10
-3 -10 -8 1 -19 17 -17 40 -119 31 -134 -9 -15 -13 -150 -19 -595 -3 -209 -7
-400 -9 -425 -2 -25 -5 -55 -6 -68 -1 -18 -5 -21 -23 -17 -71 16 -293 55 -317
55 -18 0 -20 4 -15 28 7 32 10 56 18 194 4 56 11 135 16 173 8 60 21 242 24
355 1 19 5 41 10 49 6 10 5 12 -2 7 -7 -4 -12 -2 -12 4 0 7 -6 26 -14 43 -8
18 -19 68 -26 112 -6 44 -18 109 -27 145 -8 36 -16 79 -17 95 -2 17 -8 47 -15
68 -8 24 -9 42 -3 50 5 7 12 37 16 67 12 105 16 123 40 174 14 28 36 66 50 85
14 19 26 39 26 44 0 6 12 25 26 44 14 18 27 43 29 54 2 12 9 27 16 35 14 17
73 18 86 2z m-579 -10 c20 -20 14 -28 -21 -28 -44 0 -53 11 -25 27 29 16 31
16 46 1z m-418 -28 c12 -8 10 -14 -14 -39 -16 -17 -32 -29 -34 -26 -3 2 -16
-5 -30 -15 -13 -11 -30 -20 -37 -20 -6 0 -22 -11 -35 -25 -13 -14 -25 -23 -28
-20 -3 2 -13 0 -23 -6 -17 -9 -19 -6 -19 36 0 35 4 47 18 51 9 3 48 21 86 40
73 36 92 40 116 24z m292 -27 c46 -37 148 -136 148 -144 0 -16 -251 -131 -316
-144 -85 -17 -156 -26 -189 -23 l-36 3 82 90 c46 50 87 92 93 94 6 2 44 37 85
77 40 41 79 74 86 74 8 0 28 -12 47 -27z m-136 -9 c-23 -17 -36 -18 -36 -4 0
12 42 31 50 23 3 -3 -4 -11 -14 -19z m-63 -30 c4 -20 -4 -33 -41 -67 -24 -23
-50 -41 -57 -41 -8 1 -11 -4 -9 -10 3 -7 -4 -20 -14 -30 -19 -16 -21 -15 -46
15 -15 17 -25 37 -23 43 2 6 36 29 75 51 39 22 77 46 84 53 18 18 25 15 31
-14z m-190 -145 c20 -27 33 -49 28 -49 -11 0 -81 80 -81 92 0 18 17 4 53 -43z
m593 30 c4 -7 -4 -20 -17 -31 -36 -28 -179 -95 -286 -134 -82 -30 -106 -34
-188 -34 -83 0 -97 -3 -119 -22 -23 -21 -54 -91 -76 -173 -6 -19 -6 -5 -3 40
6 76 30 135 65 159 14 10 44 16 78 16 94 0 176 19 293 66 112 45 211 97 222
115 8 12 22 11 31 -2z m81 -17 c19 -15 22 -29 26 -102 2 -52 10 -99 21 -121
11 -24 14 -43 9 -60 -12 -35 -10 -51 10 -79 9 -13 17 -30 17 -36 0 -7 7 -14
15 -18 8 -3 15 -12 15 -19 0 -8 9 -42 21 -77 13 -42 17 -65 10 -69 -6 -4 -13
-25 -17 -46 -3 -22 -10 -45 -14 -50 -12 -14 -34 -82 -60 -180 -22 -84 -21
-117 6 -209 11 -39 11 -52 1 -64 -9 -13 -9 -14 1 -8 13 8 24 -14 37 -73 l7
-34 -74 52 c-41 28 -79 51 -84 51 -11 -1 -48 -50 -36 -50 4 0 13 5 20 12 25
25 22 -3 -8 -62 -29 -57 -33 -100 -10 -100 5 0 32 -22 62 -48 71 -65 128 -102
155 -102 26 0 28 -17 12 -110 -5 -30 -11 -71 -13 -90 -2 -19 -5 -35 -6 -35 -1
0 -3 -29 -6 -63 -2 -35 -11 -76 -19 -91 -12 -25 -12 -30 2 -44 15 -15 15 -20
-2 -59 -11 -24 -27 -55 -37 -70 -10 -14 -18 -34 -18 -43 0 -10 -5 -14 -12 -10
-7 4 2 -7 20 -24 36 -34 41 -46 15 -36 -15 5 -16 4 -5 -6 6 -7 12 -22 12 -33
0 -22 66 -96 86 -96 6 0 22 9 36 19 24 20 85 30 104 18 6 -3 12 -41 13 -84 1
-42 5 -81 8 -86 10 -16 13 -156 3 -162 -14 -9 -112 -27 -165 -30 -27 -2 -81
-8 -120 -14 -108 -16 -155 -14 -156 7 -1 9 -3 26 -4 37 -2 19 -9 110 -21 280
-3 44 -7 125 -9 180 -1 55 -6 188 -11 295 -4 107 -7 395 -7 640 1 363 4 464
17 545 9 55 23 152 31 215 22 164 24 175 36 222 6 24 17 79 23 123 12 81 23
115 35 115 3 0 16 -8 28 -18z m-727 -23 c9 -15 8 -24 -2 -37 -9 -11 -10 -14 0
-8 15 9 16 -6 0 -22 -7 -7 -8 -12 -2 -12 15 0 15 -43 -1 -60 -26 -29 -58 -136
-81 -270 -10 -54 -26 -271 -39 -530 -10 -183 -19 -265 -30 -262 -5 1 -10 6
-10 11 0 5 -3 13 -7 17 -11 10 -10 185 1 220 12 38 29 193 36 319 3 55 8 118
11 140 3 22 7 65 9 95 3 30 9 84 15 120 6 36 11 72 11 80 1 8 5 20 9 25 4 6
11 26 15 45 12 64 39 150 47 150 4 0 12 -9 18 -21z m-65 -11 c-3 -13 -9 -41
-14 -63 -9 -39 -9 -38 -10 23 -1 49 2 62 14 62 11 0 14 -7 10 -22z m893 7 c2
-2 -4 -42 -14 -89 -21 -102 -34 -94 -34 22 0 82 0 83 23 76 12 -3 23 -8 25 -9z
m-194 -87 c-6 -46 -17 -103 -22 -128 -6 -25 -18 -103 -27 -175 -9 -71 -21
-152 -26 -180 -11 -52 -29 -356 -31 -510 -3 -167 13 -828 23 -1010 6 -99 12
-217 14 -263 7 -176 18 -283 29 -289 15 -10 164 -5 228 7 28 6 67 10 86 10 20
0 52 5 71 11 100 30 92 30 89 6 -4 -29 -59 -41 -259 -57 -187 -15 -826 -17
-879 -3 -30 8 -36 14 -42 48 -27 157 -35 1284 -9 1480 5 44 15 163 21 265 17
300 32 464 42 475 7 7 8 -19 4 -80 -4 -49 -18 -253 -31 -453 -13 -200 -28
-368 -32 -375 -8 -13 -6 -666 2 -792 3 -44 10 -175 15 -292 5 -117 13 -220 19
-230 19 -37 289 -56 538 -37 l92 6 -5 147 c-2 80 -9 218 -14 306 -5 88 -12
356 -15 595 -4 239 -8 469 -10 509 -1 41 1 122 6 180 4 59 13 171 19 250 15
204 64 542 91 629 19 59 26 33 13 -50z m-54 -38 c-18 -95 -21 -112 -41 -245
-20 -131 -28 -205 -34 -330 -3 -55 -10 -143 -16 -195 -7 -61 -9 -202 -4 -394
6 -289 5 -299 -12 -278 -10 11 -27 22 -38 23 -30 3 -75 -18 -75 -36 0 -9 -4
-14 -9 -10 -5 3 -13 0 -17 -6 -5 -8 -3 -9 6 -4 10 6 12 4 7 -8 -3 -10 -3 -17
2 -17 5 0 12 -11 15 -24 8 -33 57 -68 77 -54 11 8 11 9 -3 4 -10 -3 -18 -1
-18 5 0 5 13 12 30 15 16 4 27 10 25 14 -3 5 -1 19 4 32 11 27 11 26 17 -152
1 -58 6 -195 9 -305 4 -110 9 -278 11 -372 l4 -173 -72 -1 c-40 -1 -84 -3 -98
-4 -14 -2 -31 2 -39 9 -11 8 -13 8 -7 -1 5 -10 -18 -12 -106 -8 -121 5 -256
23 -263 36 -3 4 -8 70 -11 146 -3 76 -9 187 -12 248 -4 60 -7 198 -7 305 l0
195 40 5 c33 4 41 9 43 29 2 13 12 26 23 28 31 9 23 83 -10 83 -9 0 -31 9 -48
20 -18 11 -33 15 -33 10 0 -6 -5 -10 -11 -10 -9 0 -10 34 -6 128 4 70 7 141 7
158 0 28 3 31 32 31 21 0 37 7 49 24 11 13 28 33 39 44 26 27 26 32 -12 71
-22 23 -42 34 -62 34 l-28 0 6 103 c11 166 16 199 31 187 9 -8 24 4 60 45 46
54 47 57 30 75 -10 11 -14 20 -10 20 20 0 -30 39 -53 42 l-26 3 3 105 c3 110
8 133 23 106 15 -27 41 -18 85 30 24 25 43 49 43 53 0 4 20 3 44 -3 25 -6 43
-13 41 -17 -3 -3 6 -5 18 -4 29 3 83 -20 68 -29 -6 -4 -16 -4 -23 0 -7 4 -8 3
-4 -4 7 -12 -39 -36 -53 -28 -4 3 -7 -4 -8 -14 -1 -13 8 -19 40 -24 23 -4 50
-15 61 -24 11 -9 16 -11 12 -4 -7 11 6 16 41 15 7 -1 10 4 7 9 -3 5 -12 7 -20
4 -7 -3 -16 -1 -20 5 -3 6 -11 8 -17 6 -7 -2 -20 0 -31 5 -16 9 -11 14 38 45
31 20 56 40 56 45 0 5 -25 8 -55 6 -38 -3 -59 0 -66 9 -6 7 -15 10 -21 7 -5
-3 -15 -1 -23 6 -7 6 -40 12 -72 12 -32 1 -49 3 -38 5 11 2 26 6 33 8 7 3 15
4 18 4 3 -1 18 10 32 24 24 23 79 48 137 64 11 3 35 12 53 20 19 8 46 12 60 9
15 -3 21 -3 14 0 -16 7 -6 24 14 24 9 0 22 7 30 15 9 8 23 15 32 15 9 0 31 11
47 24 17 13 31 23 32 22 1 0 -7 -44 -17 -96z m-531 76 c9 -10 8 -16 -4 -26
-13 -11 -15 -8 -15 14 0 30 3 32 19 12z m-159 -112 c0 -8 -5 -12 -10 -9 -6 4
-8 11 -5 16 9 14 15 11 15 -7z m273 -39 c-30 -20 -82 -35 -88 -24 -4 5 -15 9
-27 9 -16 0 -18 3 -9 13 7 9 34 14 76 14 54 0 63 -2 48 -12z m-109 -51 c15
-39 -8 -104 -36 -104 -7 0 -6 5 2 15 6 8 12 35 12 60 1 45 11 58 22 29z m-35
-16 c0 -7 -7 -29 -14 -48 l-13 -35 -1 32 c-1 17 2 38 5 47 7 19 24 21 23 4z
m-166 -38 c7 -1 1 -7 -13 -14 -35 -19 -208 -42 -221 -29 -6 6 -2 9 13 8 13 -1
28 1 33 5 12 9 57 21 105 27 19 3 37 7 39 9 3 3 11 2 19 -1 7 -3 19 -5 25 -5z
m-137 -76 c-22 -8 -41 -12 -44 -9 -3 2 1 7 9 9 8 2 21 7 29 9 36 12 41 4 6 -9z
m1203 -356 c8 -69 11 -158 6 -255 -7 -158 -22 -334 -30 -342 -13 -12 -25 19
-29 69 -2 30 -8 69 -14 85 -18 53 -51 198 -58 261 -6 55 -2 74 36 190 24 71
45 136 47 144 9 30 30 -45 42 -152z m-911 114 c2 -7 -3 -12 -11 -12 -18 0 -31
-69 -15 -87 8 -10 6 -13 -6 -13 -12 0 -16 10 -16 46 0 25 5 54 11 65 11 21 30
21 37 1z m-1219 -117 c37 -43 69 -91 82 -125 11 -30 25 -60 30 -66 7 -8 6 -15
-1 -19 -14 -8 -8 -15 -54 69 -21 38 -52 88 -70 110 -97 122 -87 145 13 31z
m-73 13 c9 -18 21 -36 27 -40 7 -4 6 -13 -4 -25 -13 -17 -13 -17 4 -4 9 8 20
11 24 8 14 -15 93 -172 93 -186 0 -5 -21 -19 -47 -31 -27 -12 -65 -33 -85 -47
l-38 -26 -22 28 c-13 16 -32 44 -43 64 -11 20 -28 47 -37 60 -9 13 -14 29 -11
34 3 6 1 7 -6 3 -6 -4 -14 0 -18 9 -3 9 -19 31 -34 48 -30 33 -30 47 2 47 10
0 19 5 19 11 0 6 6 9 13 6 7 -3 38 12 68 33 30 22 60 39 66 39 7 1 20 -14 29
-31z m-609 -36 c-10 -10 -17 -25 -17 -32 0 -7 -3 -10 -7 -7 -8 9 17 57 30 57
6 0 3 -8 -6 -18z m-50 -42 c14 -11 38 -20 54 -20 22 0 29 -6 39 -34 7 -23 8
-41 1 -53 -5 -10 -15 -33 -21 -50 -13 -34 -34 -46 -28 -15 6 26 -39 123 -74
160 -26 26 -28 32 -14 32 10 0 29 -9 43 -20z m12 -107 c15 -41 13 -44 -89
-114 l-45 -31 38 35 c35 32 67 97 47 97 -4 0 -35 -18 -69 -41 l-60 -40 -22 20
c-13 12 -21 22 -18 24 2 2 28 20 57 41 28 21 52 42 52 47 0 12 -6 11 -22 -4
-24 -23 -108 -78 -108 -70 1 4 19 20 41 36 22 15 37 32 34 37 -3 5 13 23 36
40 l43 30 36 -35 c20 -19 42 -52 49 -72z m442 51 c19 -26 54 -80 79 -120 25
-40 54 -82 64 -93 21 -23 15 -41 -8 -22 -18 15 -184 245 -192 266 -13 33 24
13 57 -31z m-201 -84 c11 -7 8 -10 -16 -10 -36 0 -48 -9 -99 -72 -35 -46 -66
-60 -80 -38 -3 6 3 10 14 10 26 0 73 40 96 84 20 37 52 47 85 26z m-466 -42
c14 -20 14 -24 -2 -41 -16 -19 -16 -20 7 -8 32 18 55 -3 27 -25 -28 -20 -56
-18 -56 4 0 11 -9 27 -20 37 -19 17 -19 19 -4 37 22 23 30 23 48 -4z m462 -43
c-11 -8 -25 -15 -30 -15 -6 1 0 7 14 15 32 19 40 18 16 0z m52 -23 c6 -18 -15
-14 -22 4 -4 10 -1 14 6 12 6 -2 14 -10 16 -16z m-568 -27 c0 -2 -10 -10 -22
-16 -21 -11 -22 -11 -9 4 13 16 31 23 31 12z m2188 -20 c17 -37 15 -69 -7 -96
-26 -33 -37 -17 -17 25 18 39 20 62 6 71 -12 8 -13 25 -2 25 5 0 14 -11 20
-25z m-2083 5 c-3 -5 -11 -10 -16 -10 -6 0 -7 5 -4 10 3 6 11 10 16 10 6 0 7
-4 4 -10z m199 -39 c-7 -7 -34 28 -34 43 1 6 10 0 21 -13 11 -13 17 -27 13
-30z m316 5 c0 -6 -7 -2 -15 8 -8 11 -15 25 -15 30 0 6 7 2 15 -8 8 -11 15
-25 15 -30z m-250 26 c0 -5 -8 -17 -19 -26 -18 -16 -18 -16 -14 9 5 22 33 37
33 17z m-430 -16 c0 -2 -8 -10 -17 -17 -16 -13 -17 -12 -4 4 13 16 21 21 21
13z m210 -6 c0 -12 -40 -34 -47 -26 -9 8 17 36 33 36 8 0 14 -4 14 -10z m2018
-1 c-2 -6 -8 -10 -13 -10 -5 0 -11 4 -13 10 -2 6 4 11 13 11 9 0 15 -5 13 -11z
m-2271 -42 c-6 -16 -62 -60 -253 -197 -71 -52 -130 -98 -132 -102 -4 -9 -36
-11 -45 -2 -6 6 108 94 258 201 33 24 85 60 115 82 56 40 67 43 57 18z m3084
-45 c35 -20 61 -43 68 -60 11 -28 41 -165 37 -170 -2 -1 -29 12 -62 29 -75 41
-164 118 -164 144 0 22 47 98 58 93 4 -2 32 -18 63 -36z m-2323 10 c6 -18 -15
-14 -22 4 -4 10 -1 14 6 12 6 -2 14 -10 16 -16z m1391 -96 c1 -16 -64 -116
-75 -116 -14 0 1 32 31 67 34 40 35 41 20 77 -8 19 -15 43 -14 53 1 22 37 -55
38 -81z m-48 -19 c-8 -8 -11 -7 -11 4 0 20 13 34 18 19 3 -7 -1 -17 -7 -23z
m45 -339 c0 -167 4 -402 9 -523 5 -121 9 -265 10 -320 l0 -100 -45 2 c-25 1
-60 5 -79 8 l-34 6 7 137 c3 75 8 151 10 167 6 42 16 177 21 260 2 39 8 122
14 185 6 63 14 162 17 220 5 89 10 127 27 195 3 9 37 65 41 65 1 0 2 -136 2
-302z m-2566 249 c0 -14 -20 -37 -32 -37 -12 0 -10 24 4 38 16 16 28 15 28 -1z
m2690 -176 c14 -27 13 -64 -4 -86 -12 -16 -16 -17 -30 -6 -9 7 -16 21 -16 29
0 13 3 12 14 -4 13 -17 15 -17 21 -2 11 29 2 63 -18 62 -9 -1 -17 4 -17 12 0
21 38 17 50 -5z m495 -40 c-4 -17 -11 -31 -16 -31 -6 0 -8 9 -4 20 3 10 2 28
-4 38 -13 25 -2 37 17 18 10 -9 12 -24 7 -45z m-57 37 c-2 -6 -10 -14 -16 -16
-7 -2 -10 2 -6 12 7 18 28 22 22 4z m637 -18 c127 -16 226 -43 212 -56 -2 -3
-45 4 -96 16 -50 11 -107 20 -126 20 -45 0 -125 21 -125 33 0 5 15 7 33 3 17
-4 64 -11 102 -16z m-627 -56 c-10 -10 -28 6 -28 24 0 15 1 15 17 -1 9 -9 14
-19 11 -23z m697 6 c28 -6 71 -19 98 -28 46 -16 47 -17 43 -52 -3 -19 -8 -61
-11 -94 l-7 -58 -51 6 c-29 4 -64 7 -79 6 -28 0 -117 19 -185 41 l-42 14 3 55
c2 30 5 55 6 55 1 0 3 14 5 30 1 17 3 34 4 38 1 11 153 2 216 -13z m-205 -210
c61 -16 208 -39 265 -41 31 -1 58 -6 61 -11 10 -16 -26 -20 -93 -8 -37 7 -115
20 -172 29 -62 9 -106 21 -109 29 -4 14 2 15 48 2z m6 -181 c-9 -22 -16 -48
-16 -59 0 -19 -17 -36 -26 -27 -3 2 5 33 16 68 33 97 32 97 37 76 3 -10 -2
-36 -11 -58z m99 7 c-4 -29 -11 -68 -15 -87 -7 -31 -8 -28 -9 22 -1 67 8 119
21 119 6 0 7 -22 3 -54z m104 -56 c-1 -37 -2 -41 -9 -20 -12 38 -12 99 0 80 5
-8 9 -35 9 -60z m-1304 -529 l40 -9 -45 0 c-25 0 -56 4 -70 8 -24 8 -24 8 5 8
17 1 48 -3 70 -7z"/>
<path d="M3005 4170 c3 -5 8 -10 11 -10 2 0 4 5 4 10 0 6 -5 10 -11 10 -5 0
-7 -4 -4 -10z"/>
<path d="M3064 3658 l-19 -23 23 19 c21 18 27 26 19 26 -2 0 -12 -10 -23 -22z"/>
<path d="M3610 3334 c0 -8 5 -12 10 -9 6 3 10 10 10 16 0 5 -4 9 -10 9 -5 0
-10 -7 -10 -16z"/>
<path d="M3217 3589 c7 -7 15 -10 18 -7 3 3 -2 9 -12 12 -14 6 -15 5 -6 -5z"/>
<path d="M3864 3243 c-62 -68 -59 -78 24 -79 37 0 86 -3 110 -6 23 -4 42 -5
42 -2 0 12 -79 34 -121 34 -27 0 -49 3 -49 6 0 13 25 50 42 62 10 7 18 17 18
23 0 21 -25 6 -66 -38z"/>
<path d="M3945 3271 c-3 -5 4 -12 15 -16 11 -3 25 -15 30 -25 6 -10 19 -18 29
-17 16 1 13 7 -17 34 -40 35 -48 38 -57 24z"/>
<path d="M3804 3139 c-10 -16 8 -31 32 -26 13 2 24 1 24 -2 0 -12 -67 -100
-73 -95 -3 3 -4 -3 -3 -13 0 -11 -5 -18 -14 -17 -9 1 -16 -7 -16 -17 0 -10 7
-17 17 -16 9 1 15 7 12 14 -5 12 8 18 30 14 5 -1 6 3 2 9 -7 12 63 102 74 95
4 -2 8 1 9 8 0 7 2 21 4 32 3 18 -3 20 -45 21 -26 1 -50 -3 -53 -7z"/>
<path d="M3734 3027 c-8 -21 2 -35 16 -21 5 5 6 15 0 24 -8 12 -10 12 -16 -3z"/>
<path d="M3746 2797 c3 -10 9 -15 12 -12 3 3 0 11 -7 18 -10 9 -11 8 -5 -6z"/>
<path d="M3804 2790 c0 -13 4 -16 10 -10 7 7 7 13 0 20 -6 6 -10 3 -10 -10z"/>
<path d="M3955 2770 c-4 -6 -2 -17 4 -23 15 -15 25 -2 13 19 -7 12 -11 13 -17
4z"/>
<path d="M3925 2712 c-5 -6 6 -32 14 -32 3 0 11 8 17 18 10 15 8 18 -8 18 -10
0 -21 -2 -23 -4z"/>
<path d="M3917 2632 c-4 -6 -8 -27 -9 -47 -1 -19 -5 -35 -9 -35 -4 0 -9 -6
-12 -13 -3 -7 3 -13 14 -13 10 0 16 2 14 5 -3 2 3 16 12 31 12 20 13 34 6 56
-6 17 -12 24 -16 16z"/>
<path d="M3862 2498 c-22 -27 -23 -61 -2 -80 11 -10 20 -14 20 -9 0 6 -8 14
-17 20 -17 9 -17 11 1 29 10 11 16 28 14 38 -3 15 -4 16 -16 2z"/>
<path d="M3908 2410 c-63 -80 -66 -87 -58 -100 7 -11 12 -7 20 15 25 67 64 89
120 68 8 -4 20 -7 25 -7 6 -1 22 -9 37 -19 l27 -19 -61 -81 c-33 -45 -94 -116
-135 -158 -56 -57 -71 -78 -59 -82 10 -4 35 17 79 66 97 109 157 187 168 216
l11 26 12 -24 c13 -23 13 -23 14 8 0 22 -8 39 -29 58 -16 16 -35 28 -42 29
-12 1 -31 7 -75 25 -30 12 -27 13 -54 -21z"/>
<path d="M4036 2042 c-2 -4 4 -8 14 -8 10 0 16 4 14 8 -3 4 -9 8 -14 8 -5 0
-11 -4 -14 -8z"/>
<path d="M4085 2028 c1 -13 6 -21 11 -19 10 3 7 21 -5 34 -4 4 -7 -3 -6 -15z"/>
<path d="M4040 2016 c0 -2 7 -7 16 -10 8 -3 12 -2 9 4 -6 10 -25 14 -25 6z"/>
<path d="M4080 1980 c0 -5 4 -10 9 -10 6 0 13 5 16 10 3 6 -1 10 -9 10 -9 0
-16 -4 -16 -10z"/>
<path d="M3986 1913 c-6 -14 -5 -15 5 -6 7 7 10 15 7 18 -3 3 -9 -2 -12 -12z"/>
<path d="M4056 1922 c-3 -5 3 -17 14 -27 17 -15 20 -16 20 -3 0 19 -26 42 -34
30z"/>
<path d="M4045 1880 c-3 -5 -1 -10 5 -10 6 0 8 -5 4 -12 -4 -7 -3 -8 4 -4 6 4
9 13 5 21 -6 18 -10 19 -18 5z"/>
<path d="M3917 1673 c-4 -3 -7 -15 -7 -26 0 -19 1 -20 20 -2 11 10 20 22 20
27 0 10 -24 11 -33 1z"/>
<path d="M3347 3278 c9 -10 17 -18 17 -18 1 0 2 8 2 18 0 10 -8 18 -18 18 -16
0 -16 -2 -1 -18z"/>
<path d="M3340 3246 c0 -2 7 -7 16 -10 8 -3 12 -2 9 4 -6 10 -25 14 -25 6z"/>
<path d="M3284 3210 c0 -13 4 -16 10 -10 7 7 7 13 0 20 -6 6 -10 3 -10 -10z"/>
<path d="M3490 2810 c-9 -6 -10 -10 -3 -10 6 0 15 5 18 10 8 12 4 12 -15 0z"/>
<path d="M3442 1934 c-12 -18 -22 -37 -22 -40 0 -14 95 -118 141 -154 38 -30
45 -40 37 -54 -5 -10 -7 -20 -4 -23 3 -4 -2 -15 -11 -25 -16 -18 -16 -18 3
-12 18 7 18 6 3 -12 -9 -10 -22 -46 -29 -79 -7 -33 -18 -72 -26 -87 -12 -23
-12 -26 3 -24 9 2 21 16 25 32 35 119 49 172 52 189 2 11 5 21 6 23 1 1 3 8 4
15 1 6 8 10 16 8 44 -11 80 -12 80 -2 0 6 -6 11 -13 11 -39 0 -140 66 -197
127 -62 68 -67 80 -49 115 18 34 5 29 -19 -8z"/>
<path d="M3460 1781 c0 -6 4 -13 10 -16 6 -3 7 1 4 9 -7 18 -14 21 -14 7z"/>
<path d="M3524 1412 c-13 -9 -16 -54 -3 -47 5 4 13 15 19 25 11 20 1 33 -16
22z"/>
<path d="M3285 2987 c-24 -37 -26 -106 -4 -125 10 -9 15 -20 12 -25 -3 -5 3
-5 13 1 12 7 25 7 37 0 25 -13 34 -2 19 23 -10 16 -10 24 3 42 22 31 20 84 -4
97 -32 16 -59 12 -76 -13z m74 -27 c4 -32 -28 -92 -48 -88 -26 5 -37 63 -17
93 22 34 59 31 65 -5z"/>
<path d="M3312 2937 c-15 -42 -15 -47 2 -47 14 0 26 29 26 63 0 28 -15 19 -28
-16z"/>
<path d="M3245 2565 c-25 -25 -30 -49 -19 -103 6 -29 9 -30 43 -26 20 2 41 11
47 19 6 8 13 13 16 10 2 -3 5 15 7 39 1 37 -2 47 -25 65 -34 27 -40 26 -69 -4z
m55 -14 c12 -24 13 -61 0 -81 -14 -23 -22 -6 -10 25 8 22 8 32 -4 43 -12 12
-15 11 -21 -7 -3 -11 -3 -25 0 -31 3 -5 1 -10 -5 -10 -17 0 -24 29 -12 56 14
29 37 31 52 5z"/>
<path d="M3212 2107 c-7 -18 -12 -45 -12 -59 0 -32 47 -91 66 -84 18 7 13 -37
-10 -84 -23 -48 -115 -152 -128 -144 -7 4 -8 2 -4 -5 4 -6 0 -14 -10 -18 -9
-3 -33 -24 -52 -45 -19 -21 -39 -35 -45 -31 -5 3 -7 1 -3 -5 3 -6 0 -17 -8
-25 -13 -13 -12 -14 11 -14 18 0 21 2 12 8 -11 7 -11 11 -2 17 38 25 214 188
219 204 3 10 10 15 16 12 6 -4 8 -2 5 3 -4 6 4 30 17 54 19 33 22 47 15 66 -7
18 -5 30 6 46 25 36 19 92 -11 116 -40 32 -68 27 -82 -12z m73 -35 c6 -31 -9
-82 -25 -82 -14 0 -13 7 6 36 14 20 15 30 6 49 -14 30 -32 33 -32 5 0 -11 5
-20 10 -20 16 0 12 -17 -5 -24 -22 -8 -30 19 -15 54 10 24 15 28 30 20 10 -5
21 -23 25 -38z"/>
<path d="M2906 2103 c-13 -13 -4 -20 44 -32 28 -7 64 -24 80 -38 16 -13 33
-23 37 -23 4 1 9 -2 10 -7 3 -10 -89 -54 -117 -56 -11 -1 -30 -11 -41 -23
l-20 -21 56 -51 c31 -29 59 -51 63 -50 4 1 19 -2 34 -6 29 -9 46 1 132 77 24
20 48 37 53 37 6 0 16 7 23 15 23 28 -18 17 -43 -11 -25 -29 -136 -94 -160
-94 -23 0 -79 35 -70 44 4 4 1 5 -7 2 -9 -3 -22 5 -32 18 -16 22 -16 24 5 33
73 34 101 43 124 43 14 0 23 3 20 7 -4 3 3 11 14 17 12 6 20 16 18 21 -4 10
-8 11 -38 14 -8 1 -11 7 -7 17 3 9 2 12 -5 9 -5 -4 -16 -1 -24 5 -8 6 -20 8
-26 4 -9 -5 -10 -2 -6 10 4 9 3 15 -2 12 -4 -3 -31 3 -58 14 -28 10 -53 16
-57 13z"/>
<path d="M3049 1078 c-5 -16 -4 -46 2 -42 4 2 7 13 6 24 -1 17 -5 26 -8 18z"/>
<path d="M2984 1050 c0 -13 4 -16 10 -10 7 7 7 13 0 20 -6 6 -10 3 -10 -10z"/>
<path d="M3014 1050 c0 -13 4 -16 10 -10 7 7 7 13 0 20 -6 6 -10 3 -10 -10z"/>
<path d="M2620 1030 c-12 -7 -10 -9 7 -7 12 0 19 5 17 9 -6 10 -6 10 -24 -2z"/>
<path d="M2784 4313 c-9 -15 -8 -18 10 -18 12 -1 33 -4 49 -8 16 -5 27 -3 27
3 0 5 -12 10 -26 10 -15 0 -32 7 -38 15 -10 14 -12 13 -22 -2z"/>
<path d="M2768 4248 c5 -22 18 -23 25 -4 3 8 21 17 39 19 19 2 11 4 -18 3 -43
-1 -50 -4 -46 -18z"/>
<path d="M2839 4213 c-47 -52 -53 -63 -36 -63 17 0 70 66 65 81 -2 5 -15 -3
-29 -18z"/>
<path d="M3250 4054 c-18 -18 -31 -23 -47 -19 -21 5 -23 2 -23 -29 0 -19 5
-38 10 -41 6 -4 10 5 10 19 0 15 6 26 13 26 13 0 46 32 61 58 11 19 1 14 -24
-14z"/>
<path d="M2730 3964 c0 -7 16 -16 38 -19 66 -11 70 -14 43 -36 -21 -17 -22
-22 -10 -30 19 -12 59 -11 59 1 0 6 -10 10 -22 10 -17 0 -19 3 -10 12 26 26
13 44 -43 60 -45 12 -55 13 -55 2z"/>
<path d="M2815 3970 c-3 -5 1 -10 10 -10 9 0 13 5 10 10 -3 6 -8 10 -10 10 -2
0 -7 -4 -10 -10z"/>
<path d="M2890 3891 c0 -16 24 -18 55 -5 l30 13 -42 1 c-24 0 -43 -4 -43 -9z"/>
<path d="M2597 3223 c-12 -11 -7 -40 8 -53 9 -7 13 -20 10 -27 -3 -9 0 -13 7
-10 7 2 21 0 32 -5 13 -7 16 -7 11 1 -4 7 -1 20 7 29 12 15 11 16 -4 4 -23
-18 -36 -8 -44 33 -6 34 -14 42 -27 28z"/>
<path d="M2639 3024 l-24 -27 28 18 c15 9 27 21 27 26 0 14 -5 11 -31 -17z"/>
<path d="M2094 2818 l-19 -23 23 19 c21 18 27 26 19 26 -2 0 -12 -10 -23 -22z"/>
<path d="M2027 2784 c-4 -4 -7 -25 -7 -46 0 -22 -4 -37 -8 -34 -5 3 -8 -5 -7
-17 1 -16 9 -22 31 -24 16 -1 38 -4 49 -7 11 -3 26 -1 34 3 9 6 -3 12 -36 20
l-50 12 11 40 c10 38 0 69 -17 53z"/>
<path d="M1850 2478 c-19 -5 -62 -11 -95 -12 -44 -2 -60 -6 -60 -16 0 -17 19
-17 108 -1 37 6 71 10 75 7 4 -2 8 4 8 15 0 10 0 19 -1 18 0 -1 -16 -5 -35
-11z"/>
<path d="M3340 306 c0 -2 7 -7 16 -10 8 -3 12 -2 9 4 -6 10 -25 14 -25 6z"/>
<path d="M3435 189 c-4 -6 -5 -12 -2 -15 2 -3 7 2 10 11 7 17 1 20 -8 4z"/>
</g>
</svg>
